<svg width="545" height="270" viewBox="0 0 545 270" fill="none" xmlns="http://www.w3.org/2000/svg">
<path fill-rule="evenodd" clip-rule="evenodd" d="M179.305 5.48131C223.951 2.81696 268.683 8.9798 310.949 23.618C353.215 38.2563 392.187 61.0832 425.638 90.7958C459.09 120.508 486.367 156.525 505.912 196.789C525.457 237.052 536.887 280.775 539.55 325.46C542.212 370.145 536.054 414.918 521.428 457.221C506.802 499.524 483.994 538.529 454.307 572.01C424.62 605.491 388.634 632.791 348.406 652.352C308.177 671.914 264.493 683.353 219.848 686.018C175.203 688.682 130.47 682.519 88.2041 667.881C45.9383 653.243 6.96683 630.416 -26.485 600.703C-59.9369 570.99 -87.2142 534.974 -106.759 494.71C-126.304 454.447 -137.734 410.724 -140.396 366.039C-143.058 321.354 -136.901 276.581 -122.275 234.278C-107.648 191.975 -84.8407 152.97 -55.1534 119.489C-25.4662 86.0082 10.519 58.7078 50.7475 39.1464C90.976 19.585 134.66 8.14567 179.305 5.48131ZM312.258 19.8383C269.496 5.02804 224.237 -1.20726 179.067 1.48842C133.897 4.18409 89.6994 15.7579 48.9983 35.5492C8.29712 55.3404 -28.1106 82.9614 -58.1463 116.835C-88.182 150.709 -111.257 190.172 -126.055 232.971C-140.852 275.77 -147.082 321.068 -144.389 366.277C-141.696 411.486 -130.132 455.721 -110.358 496.457C-90.5833 537.193 -62.986 573.632 -29.1414 603.694C4.70328 633.755 44.1325 656.85 86.8951 671.661C129.658 686.471 174.916 692.706 220.086 690.01C265.257 687.315 309.454 675.741 350.155 655.95C390.856 636.159 427.264 608.538 457.3 574.664C487.335 540.79 510.411 501.327 525.208 458.528C540.006 415.729 546.236 370.431 543.542 325.222C540.849 280.013 529.285 235.778 509.511 195.042C489.737 154.306 462.139 117.867 428.295 87.8052C394.45 57.7437 355.021 34.6486 312.258 19.8383ZM440.633 345.956C440.633 479.137 332.668 587.101 199.487 587.101C66.3065 587.101 -41.6579 479.137 -41.6579 345.956C-41.6579 212.775 66.3065 104.811 199.487 104.811C332.668 104.811 440.633 212.775 440.633 345.956ZM490.914 345.956C490.914 506.907 360.438 637.383 199.487 637.383C38.5368 637.383 -91.9395 506.907 -91.9395 345.956C-91.9395 185.006 38.5368 54.5293 199.487 54.5293C360.438 54.5293 490.914 185.006 490.914 345.956ZM343.566 345.729C343.566 425.121 279.115 489.581 199.487 489.581C119.859 489.581 55.4085 425.121 55.4085 345.729C55.4085 266.337 119.859 201.877 199.487 201.877C279.115 201.877 343.566 266.337 343.566 345.729ZM393.847 345.729C393.847 452.946 306.829 539.862 199.487 539.862C92.145 539.862 5.12695 452.946 5.12695 345.729C5.12695 238.512 92.145 151.596 199.487 151.596C306.829 151.596 393.847 238.512 393.847 345.729ZM199.487 399.318C228.855 399.318 252.849 375.429 252.849 345.729C252.849 316.029 228.855 292.14 199.487 292.14C170.12 292.14 146.125 316.029 146.125 345.729C146.125 375.429 170.12 399.318 199.487 399.318ZM199.487 449.6C256.728 449.6 303.131 403.095 303.131 345.729C303.131 288.363 256.728 241.859 199.487 241.859C142.247 241.859 95.8438 288.363 95.8438 345.729C95.8438 403.095 142.247 449.6 199.487 449.6Z" fill="white"/>
</svg>
