<svg width="118" height="253" viewBox="0 0 118 253" fill="none" xmlns="http://www.w3.org/2000/svg">
<path fill-rule="evenodd" clip-rule="evenodd" d="M191.931 -150.768C218.126 -152.332 244.371 -148.716 269.17 -140.127C293.968 -131.539 316.834 -118.146 336.461 -100.712C356.088 -83.2792 372.092 -62.1473 383.56 -38.5233C395.028 -14.8993 401.734 10.7543 403.296 36.9725C404.858 63.1908 401.245 89.4603 392.663 114.281C384.082 139.102 370.7 161.987 353.281 181.631C335.863 201.275 314.749 217.293 291.146 228.77C267.543 240.247 241.913 246.959 215.719 248.522C189.524 250.086 163.279 246.47 138.48 237.881C113.682 229.293 90.8165 215.899 71.1894 198.466C51.5623 181.033 35.5579 159.901 24.0903 136.277C12.6226 112.653 5.91629 86.9997 4.35431 60.7814C2.79233 34.5632 6.4053 8.29373 14.9869 -16.5269C23.5684 -41.3476 36.9505 -64.2332 54.3688 -83.8773C71.7872 -103.521 92.9007 -119.539 116.504 -131.016C140.107 -142.493 165.737 -149.205 191.931 -150.768ZM270.479 -143.907C245.184 -152.668 218.412 -156.356 191.693 -154.761C164.974 -153.167 138.83 -146.321 114.754 -134.614C90.6788 -122.907 69.1428 -106.568 51.3759 -86.5311C33.6092 -66.494 19.9595 -43.1507 11.2064 -17.834C2.45335 7.48277 -1.2318 34.2772 0.361387 61.0193C1.95458 87.7615 8.79491 113.928 20.4918 138.024C32.1887 162.12 48.5131 183.675 68.533 201.457C88.5529 219.239 111.876 232.9 137.171 241.661C162.466 250.421 189.238 254.11 215.957 252.515C242.676 250.921 268.82 244.075 292.896 232.368C316.971 220.661 338.507 204.322 356.274 184.285C374.041 164.248 387.691 140.905 396.444 115.588C405.197 90.2712 408.882 63.4768 407.289 36.7347C405.696 9.99249 398.855 -16.1738 387.158 -40.2701C375.461 -64.3664 359.137 -85.9209 339.117 -103.703C319.097 -121.485 295.774 -135.146 270.479 -143.907ZM346.415 48.9991C346.415 127.779 282.552 191.642 203.772 191.642C124.993 191.642 61.1294 127.779 61.1294 48.9991C61.1294 -29.7804 124.993 -93.6439 203.772 -93.6439C282.552 -93.6439 346.415 -29.7804 346.415 48.9991ZM376.158 48.9991C376.158 144.205 298.978 221.385 203.772 221.385C108.566 221.385 31.3867 144.205 31.3867 48.9991C31.3867 -46.2069 108.566 -123.387 203.772 -123.387C298.978 -123.387 376.158 -46.2069 376.158 48.9991ZM288.999 48.8647C288.999 95.8268 250.875 133.956 203.773 133.956C156.671 133.956 118.547 95.8268 118.547 48.8647C118.547 1.90268 156.671 -36.2269 203.773 -36.2269C250.875 -36.2269 288.999 1.90268 288.999 48.8647ZM318.742 48.8647C318.742 112.286 267.268 163.699 203.773 163.699C140.278 163.699 88.8046 112.286 88.8046 48.8647C88.8046 -14.5565 140.278 -65.9696 203.773 -65.9696C267.268 -65.9696 318.742 -14.5565 318.742 48.8647ZM203.772 80.5639C221.144 80.5639 235.337 66.4331 235.337 48.8649C235.337 31.2967 221.144 17.1659 203.772 17.1659C186.401 17.1659 172.208 31.2967 172.208 48.8649C172.208 66.4331 186.401 80.5639 203.772 80.5639ZM203.772 110.307C237.632 110.307 265.08 82.7982 265.08 48.8649C265.08 14.9316 237.632 -12.5768 203.772 -12.5768C169.913 -12.5768 142.465 14.9316 142.465 48.8649C142.465 82.7982 169.913 110.307 203.772 110.307Z" fill="white"/>
</svg>
