<svg width="1920" height="862" viewBox="0 0 1920 862" fill="none" xmlns="http://www.w3.org/2000/svg">
<path fill-rule="evenodd" clip-rule="evenodd" d="M1920 229.49C1903.05 221.421 1887.28 210.985 1873.19 198.466C1853.56 181.033 1837.56 159.901 1826.09 136.277C1814.62 112.653 1807.92 86.9997 1806.35 60.7814C1805.15 40.616 1807.01 20.4204 1811.84 0.876953L1840.19 0.876953C1835.76 16.15 1833.39 32.2972 1833.39 48.9991C1833.39 112.98 1868.24 168.819 1920 198.565V229.49ZM1871.45 0.876953C1866.06 15.9109 1863.13 32.1123 1863.13 48.9991C1863.13 95.5828 1885.46 136.951 1920 162.984V125.333C1901.84 105.027 1890.8 78.2333 1890.8 48.8647C1890.8 31.7338 1894.56 15.479 1901.29 0.876953H1871.45ZM1920 233.911V900.877H542.178C537.934 861.371 526.895 822.854 509.511 787.042C489.737 746.306 462.139 709.867 428.295 679.805C394.45 649.744 355.021 626.649 312.258 611.838C269.496 597.028 224.237 590.793 179.067 593.488C133.897 596.184 89.6994 607.758 48.9983 627.549C31.8517 635.887 15.4672 645.614 0 656.613V0.876953L1807.72 0.876953C1802.97 20.5122 1801.16 40.7807 1802.36 61.0193C1803.95 87.7615 1810.79 113.928 1822.49 138.024C1834.19 162.12 1850.51 183.675 1870.53 201.457C1885.39 214.649 1902.06 225.573 1920 233.911ZM505.912 788.789C523.032 824.057 533.926 861.979 538.155 900.877H488.578C470.363 757.435 347.877 646.529 199.487 646.529C122.309 646.529 52.1381 676.53 0 725.506V661.536C15.9657 649.98 32.9409 639.805 50.7475 631.146C90.976 611.585 134.66 600.146 179.305 597.481C223.951 594.817 268.683 600.98 310.949 615.618C353.215 630.256 392.187 653.083 425.638 682.796C459.09 712.508 486.367 748.525 505.912 788.789ZM199.487 696.811C320.059 696.811 419.963 785.3 437.8 900.877H390.35C373.113 811.283 294.214 743.596 199.487 743.596C104.76 743.596 25.8609 811.283 8.62429 900.877H0V802.431C43.3955 738.678 116.552 696.811 199.487 696.811ZM199.487 793.877C266.34 793.877 322.496 839.314 338.793 900.877H296.418C281.581 861.702 243.779 833.859 199.487 833.859C155.196 833.859 117.393 861.702 102.556 900.877H60.1813C76.4783 839.314 132.634 793.877 199.487 793.877ZM199.487 884.141C214.709 884.141 228.487 890.558 238.229 900.877H160.745C170.487 890.558 184.266 884.141 199.487 884.141Z" fill="#CE0D0F"/>
</svg>
