<svg width="15" height="15" viewBox="0 0 15 15" fill="none" xmlns="http://www.w3.org/2000/svg">
<path d="M10.0006 10.6604L11.2923 9.36823C11.4663 9.19635 11.6864 9.0787 11.9259 9.02954C12.1654 8.98039 12.414 9.00186 12.6416 9.09134L14.2158 9.72012C14.4457 9.8135 14.6429 9.97289 14.7825 10.1782C14.922 10.3835 14.9977 10.6256 15 10.8738V13.7581C14.9987 13.927 14.9632 14.0939 14.8957 14.2487C14.8282 14.4035 14.73 14.5431 14.6072 14.6589C14.4844 14.7748 14.3394 14.8646 14.1809 14.923C14.0225 14.9813 13.8539 15.007 13.6853 14.9984C2.6544 14.3119 0.428617 4.96679 0.00767922 1.39026C-0.011861 1.21462 0.00599238 1.03684 0.0600648 0.868608C0.114137 0.700373 0.203203 0.545498 0.321403 0.414172C0.439604 0.282846 0.584259 0.178045 0.745854 0.106664C0.907448 0.0352829 1.08232 -0.00106094 1.25896 2.35757e-05H4.04407C4.29261 0.000759526 4.53523 0.0758619 4.74075 0.215671C4.94627 0.35548 5.10528 0.553602 5.19733 0.784554L5.82585 2.35938C5.91826 2.58613 5.94183 2.83509 5.89363 3.07516C5.84543 3.31523 5.7276 3.53577 5.55484 3.70923L4.26319 5.0014C4.26319 5.0014 5.00704 10.0374 10.0006 10.6604Z" fill="#282828" fill-opacity="0.35"/>
</svg>
