<svg width="544" height="671" viewBox="0 0 544 671" fill="none" xmlns="http://www.w3.org/2000/svg">
<ellipse cx="333.376" cy="336.121" rx="225.03" ry="226.416" stroke="#282828" stroke-opacity="0.1" stroke-width="2"/>
<path d="M476.902 161.737C441.041 131.857 396.851 113.905 350.423 110.356C303.995 106.807 257.617 117.835 217.681 141.922C177.744 166.008 146.217 201.965 127.445 244.838C108.673 287.71 103.58 335.385 112.869 381.291" stroke="#E91D1F" stroke-width="5"/>
<circle cx="476.5" cy="161.5" r="7.5" fill="#E91D1F"/>
<circle cx="476.5" cy="161.5" r="13" stroke="#E91D1F"/>
<ellipse cx="333.746" cy="336.121" rx="103.563" ry="104.578" stroke="#282828" stroke-opacity="0.1" stroke-width="2"/>
<ellipse cx="333.726" cy="336.025" rx="330.986" ry="333.025" stroke="#282828" stroke-opacity="0.1" stroke-width="2"/>
<path d="M620.368 169.512C597.368 129.429 566.315 94.6094 529.193 67.2756C492.07 39.9419 449.692 20.6941 404.763 10.7604C359.834 0.826756 313.34 0.425267 268.248 9.5816C223.156 18.7379 180.456 37.251 142.873 63.9396C105.289 90.6282 73.6476 124.906 49.9667 164.587C26.2857 204.267 11.0855 248.479 5.33581 294.4C-0.413853 340.322 3.41331 386.945 16.5731 431.295C29.7329 475.645 51.9363 516.748 81.7668 551.982" stroke="#E91D1F" stroke-width="5"/>
<circle cx="84.1326" cy="553.248" r="17.5" transform="rotate(30.892 84.1326 553.248)" stroke="#E91D1F" stroke-width="5"/>
<circle cx="84.1324" cy="553.248" r="32.5" transform="rotate(30.892 84.1324 553.248)" stroke="#E91D1F" stroke-width="5"/>
<circle cx="84.1313" cy="553.248" r="44" transform="rotate(30.892 84.1313 553.248)" stroke="#E91D1F" stroke-width="2"/>
<circle cx="84.2729" cy="553.724" r="7.5" transform="rotate(30.892 84.2729 553.724)" fill="#E91D1F"/>
</svg>
