<svg width="1920" height="900" viewBox="0 0 1920 900" fill="none" xmlns="http://www.w3.org/2000/svg">
<path fill-rule="evenodd" id="circle" clip-rule="evenodd" d="M1920 0H0V900H1340.31C1332.22 866.5 1327.09 832.269 1325.03 797.701C1320.48 721.276 1331.01 644.702 1356.03 572.351C1381.04 499.999 1420.05 433.288 1470.82 376.025C1521.6 318.762 1583.15 272.069 1651.95 238.613C1720.75 205.156 1795.47 185.591 1871.83 181.034C1887.89 180.075 1903.96 179.785 1920 180.157V0ZM1920 184.158C1904.04 183.785 1888.05 184.073 1872.07 185.027C1796.23 189.552 1722.03 208.983 1653.7 242.21C1585.37 275.437 1524.24 321.809 1473.82 378.679C1423.39 435.549 1384.65 501.802 1359.81 573.658C1334.96 645.513 1324.5 721.562 1329.03 797.463C1331.09 832.117 1336.26 866.431 1344.43 900H1432.9C1420.4 856.61 1413.7 810.762 1413.7 763.349C1413.7 491.265 1634.27 270.698 1906.35 270.698C1910.91 270.698 1915.46 270.76 1920 270.883V184.158ZM1920 355.922C1915.47 355.773 1910.92 355.698 1906.35 355.698C1681.21 355.698 1498.7 538.209 1498.7 763.349C1498.7 811.281 1506.97 857.282 1522.17 900H1607.71C1588.5 858.297 1577.79 811.881 1577.79 762.965C1577.79 581.717 1724.89 434.787 1906.35 434.787C1910.92 434.787 1915.47 434.88 1920 435.065V355.922ZM1920 520.162C1915.48 519.913 1910.93 519.787 1906.35 519.787C1771.74 519.787 1662.79 628.755 1662.79 762.965C1662.79 813.776 1678.4 860.969 1705.12 900H1796.79C1756.77 867.819 1731.14 818.391 1731.14 762.965C1731.14 665.989 1809.59 587.375 1906.35 587.375C1910.94 587.375 1915.5 587.552 1920 587.9V520.162ZM1920 673.407C1915.55 672.727 1910.99 672.375 1906.35 672.375C1856.7 672.375 1816.14 712.758 1816.14 762.965C1816.14 813.173 1856.7 853.556 1906.35 853.556C1910.99 853.556 1915.55 853.204 1920 852.524V673.407Z" fill="#CE0D0F" fill-opacity="0.85"/>
</svg>
