<svg width="40" height="41" viewBox="0 0 40 41" fill="none" xmlns="http://www.w3.org/2000/svg">
<rect y="0.876953" width="40" height="40" rx="20" fill="white"/>
<path d="M18.394 23.4179C18.394 22.7726 18.5847 22.1566 18.966 21.5699C19.362 20.9833 19.7874 20.5139 20.242 20.1619C20.6967 19.7953 21.1147 19.3699 21.496 18.8859C21.892 18.4019 22.09 17.9179 22.09 17.4339C22.09 16.9206 21.914 16.5246 21.562 16.2459C21.21 15.9673 20.7187 15.8279 20.088 15.8279C18.856 15.8279 17.9834 16.4806 17.47 17.7859L14.874 16.2899C15.314 15.2046 16.0107 14.3686 16.964 13.7819C17.932 13.1806 19.01 12.8799 20.198 12.8799C21.5327 12.8799 22.684 13.2686 23.652 14.0459C24.6347 14.8086 25.126 15.8646 25.126 17.2139C25.126 17.8299 24.994 18.4019 24.73 18.9299C24.4807 19.4579 24.1727 19.9126 23.806 20.2939C23.454 20.6606 23.0947 21.0126 22.728 21.3499C22.376 21.6726 22.068 22.0099 21.804 22.3619C21.5547 22.7139 21.43 23.0659 21.43 23.4179H18.394ZM21.232 28.3239C20.8654 28.6906 20.4254 28.8739 19.912 28.8739C19.3987 28.8739 18.9587 28.6906 18.592 28.3239C18.2254 27.9573 18.042 27.5173 18.042 27.0039C18.042 26.4906 18.2254 26.0506 18.592 25.6839C18.9587 25.3173 19.3987 25.1339 19.912 25.1339C20.4254 25.1339 20.8654 25.3173 21.232 25.6839C21.5987 26.0506 21.782 26.4906 21.782 27.0039C21.782 27.5173 21.5987 27.9573 21.232 28.3239Z" fill="#CE0D0F"/>
</svg>
