<svg width="54" height="55" viewBox="0 0 54 55" fill="none" xmlns="http://www.w3.org/2000/svg">
<path d="M27.0007 10C17.6116 10 10 18.0167 10 27.9063V49.1725C10.7305 49.8237 11.4954 50.4338 12.2913 51V27.8632C12.3143 19.3264 18.8888 12.4141 27 12.4141C35.1112 12.4141 41.6775 19.3189 41.7079 27.8481V51C42.5042 50.4339 43.2693 49.8238 44 49.1725V27.9078C44.0015 18.0175 36.3899 10 27.0007 10Z" fill="#282828"/>
<path d="M27.5004 15C20.5968 15 15.0007 20.7385 15 27.8168V51.8755C15.7462 52.2868 16.5154 52.6614 17.3074 52.9993V27.7998C17.3171 22.0354 21.8767 17.3688 27.5004 17.3688C33.1241 17.3688 37.6926 22.0487 37.6926 27.8213V53C38.4816 52.6627 39.2508 52.2881 40 51.8763V27.8183C40 20.7385 34.4032 15 27.5004 15Z" fill="#282828"/>
<path d="M51.4824 28.0409V40C53.1494 36.2663 54.0076 32.218 54 28.1243C54 12.5914 41.9138 0 26.9992 0C12.0847 0 6.59046e-05 12.5929 6.59046e-05 28.1243C-0.00864581 32.2134 0.846417 36.2576 2.50851 39.9885V27.9651H2.51307C2.55183 13.9156 13.4978 2.53818 26.9962 2.53818C40.4947 2.53818 51.4505 13.9232 51.4824 27.9804V28.0401V28.0409Z" fill="#282828"/>
<path d="M27.0008 5C14.8742 5 5.04004 15.2111 5 27.8272V43.9965C5.70879 45.05 6.48832 46.0535 7.33313 47V27.8333C7.36939 16.56 16.1587 7.43244 26.997 7.43244C37.8353 7.43244 46.6306 16.5645 46.6638 27.8424V27.9017V47C47.5099 46.0519 48.2905 45.0466 49 43.9912V27.9025C49 15.2536 39.1507 5 27.0008 5Z" fill="#282828"/>
<path d="M27.5004 36.5888C23.6803 36.5888 20.5217 33.2898 20 29V35.864C21.4849 38.9075 24.2871 40 27.5004 40C30.7136 40 33.5151 38.9043 35 35.8648V29C34.4783 33.2898 31.3197 36.5888 27.5004 36.5888Z" fill="#282828"/>
<path d="M20 40.0007V43.7859C21.2684 48.0437 33.2908 48.0989 35 43.7859V40C34.3832 44.7164 20.4351 44.6312 20 40.0007Z" fill="#282828"/>
<path d="M20 48.0007V51.7859C21.2684 56.0437 33.2908 56.0989 35 51.7859V48C34.3832 52.7164 20.4351 52.6298 20 48.0007Z" fill="#282828"/>
</svg>
