<svg width="17" height="15" viewBox="0 0 17 15" fill="none" xmlns="http://www.w3.org/2000/svg">
<path d="M0.25 4.593L8.2405 8.74875C8.32065 8.79043 8.40966 8.81218 8.5 8.81218C8.59034 8.81218 8.67935 8.79043 8.7595 8.74875L16.75 4.59375V11.8125C16.75 12.4351 16.5118 13.0341 16.0842 13.4867C15.6567 13.9392 15.0721 14.211 14.4505 14.2463L14.3125 14.25H2.6875C2.0649 14.25 1.46588 14.0118 1.01333 13.5842C0.560775 13.1567 0.288999 12.5721 0.25375 11.9505L0.25 11.8125V4.593ZM2.6875 0.75H14.3125C14.9351 0.749959 15.5341 0.988165 15.9867 1.41575C16.4392 1.84334 16.711 2.4279 16.7463 3.0495L16.75 3.1875V3.3255L8.5 7.6155L0.25 3.3255V3.1875C0.249959 2.5649 0.488166 1.96588 0.915754 1.51333C1.34334 1.06078 1.9279 0.788999 2.5495 0.75375L2.6875 0.75H14.3125H2.6875Z" fill="#282828" fill-opacity="0.35"/>
</svg>
