<svg width="978" height="660" viewBox="0 0 978 660" fill="none" xmlns="http://www.w3.org/2000/svg">
<path fill-rule="evenodd" clip-rule="evenodd" d="M46.218 58.684C46.218 84.0754 25.7055 104.491 0.609001 104.491C0.405697 104.491 0.202694 104.49 0 104.487V12.8807C0.202694 12.878 0.405697 12.8767 0.609001 12.8767C25.7055 12.8767 46.218 33.2925 46.218 58.684ZM0 149.489V191.876C0.166594 191.876 0.333261 191.877 0.5 191.877C74.3491 191.877 134 132.212 134 58.8767C134 38.097 129.211 18.4149 120.666 0.876709H70.4899C83.4382 16.5802 91.218 36.7215 91.218 58.684C91.218 108.835 50.651 149.491 0.609001 149.491C0.405844 149.491 0.202843 149.491 0 149.489ZM0 286.877V236.876C0.166613 236.876 0.33328 236.877 0.5 236.877C99.0828 236.877 179 157.183 179 58.8767C179 38.5697 175.59 19.0569 169.31 0.876709H220.557C225.414 19.3957 228 38.8342 228 58.8767C228 184.798 125.921 286.877 0 286.877ZM0 290.877V659.877H978V0.876709H224.691C229.462 19.4147 232 38.8493 232 58.8767C232 187.007 128.13 290.877 0 290.877Z" fill="#CE0D0F" fill-opacity="0.85"/>
</svg>
